<?xml version="1.0" standalone="no"?>
<!DOCTYPE svg PUBLIC "-//W3C//DTD SVG 20010904//EN"
 "http://www.w3.org/TR/2001/REC-SVG-20010904/DTD/svg10.dtd">
<svg version="1.0" xmlns="http://www.w3.org/2000/svg"
 width="800.000000pt" height="800.000000pt" viewBox="0 0 800.000000 800.000000"
 preserveAspectRatio="xMidYMid meet">

<g transform="translate(0.000000,800.000000) scale(0.100000,-0.100000)"
fill="#000000" stroke="none">
<path d="M0 4000 l0 -4000 4000 0 4000 0 0 4000 0 4000 -4000 0 -4000 0 0
-4000z m5793 2140 c42 -157 125 -469 186 -695 60 -225 178 -664 261 -975 393
-1463 361 -1336 361 -1435 0 -164 -57 -301 -172 -416 -94 -95 -162 -125 -474
-208 -237 -63 -645 -172 -1185 -317 -113 -31 -396 -107 -630 -169 -570 -152
-961 -257 -1157 -311 -90 -24 -193 -48 -230 -55 -233 -37 -487 99 -597 319
-16 31 -108 356 -227 800 -110 411 -274 1023 -365 1360 -90 338 -164 617 -164
621 0 4 28 14 63 23 296 73 647 174 647 186 0 7 -34 138 -75 290 -41 152 -71
280 -67 283 4 4 111 35 237 69 127 34 421 112 655 175 234 62 520 139 635 170
116 31 334 89 485 130 151 41 370 99 485 130 116 31 404 108 640 172 237 63
468 125 515 138 60 16 87 19 91 11 4 -6 41 -139 82 -296z"/>
<path d="M5190 5950 c-147 -27 -243 -101 -265 -207 -15 -73 46 -192 115 -228
15 -8 78 -24 140 -36 61 -12 118 -29 126 -37 25 -24 13 -64 -26 -87 -30 -17
-52 -20 -151 -20 l-116 0 21 -79 c26 -94 36 -101 143 -92 250 20 390 169 328
347 -31 86 -81 118 -236 149 -143 28 -176 53 -130 99 25 25 71 34 159 29 l72
-3 5 45 c3 25 8 61 11 81 5 32 2 37 -18 43 -30 8 -121 6 -178 -4z"/>
<path d="M4722 5815 c-45 -12 -85 -25 -89 -29 -8 -7 14 -524 23 -553 3 -10
-54 97 -127 238 l-132 257 -91 -25 c-49 -13 -91 -25 -91 -26 -3 -6 14 -440 20
-497 l6 -65 -130 250 c-71 138 -133 249 -138 249 -43 -8 -173 -48 -173 -53 0
-4 82 -156 183 -338 l183 -330 114 31 c63 17 115 36 115 41 -3 102 -17 412
-21 445 -6 49 -17 68 166 -290 29 -58 54 -106 56 -108 2 -3 138 31 216 54 16
5 17 28 12 337 -4 183 -9 355 -13 383 l-6 51 -83 -22z"/>
<path d="M3510 5492 c-113 -30 -206 -56 -207 -57 -1 0 31 -125 71 -276 41
-150 84 -311 96 -356 17 -63 26 -83 39 -83 10 0 64 13 122 29 57 16 142 39
189 51 47 12 89 25 93 29 11 11 -25 142 -40 148 -6 2 -55 -7 -108 -21 -53 -14
-102 -26 -109 -26 -7 0 -18 21 -24 48 -6 26 -13 54 -17 64 -5 13 4 19 47 31
29 8 78 22 109 31 l56 16 -20 75 c-11 41 -25 75 -31 75 -6 0 -53 -12 -105 -26
-51 -14 -97 -22 -101 -17 -3 4 -12 28 -19 52 -10 34 -10 45 -1 51 7 4 59 20
116 35 102 27 104 28 98 54 -16 67 -36 131 -42 130 -4 -1 -99 -26 -212 -57z"/>
<path d="M3042 5367 c-57 -16 -71 -23 -67 -36 2 -9 27 -99 54 -201 28 -102 57
-205 66 -229 8 -24 14 -46 12 -48 -2 -1 -54 52 -115 120 -61 67 -149 163 -195
212 l-84 90 -116 -29 c-63 -16 -121 -32 -127 -36 -8 -5 13 -97 70 -311 106
-394 110 -409 118 -409 22 0 162 44 162 51 0 15 -98 372 -120 433 -11 33 -19
60 -17 62 1 1 34 -32 72 -75 39 -42 128 -140 198 -218 l129 -141 110 30 c61
16 119 33 128 36 15 6 7 45 -78 365 -76 282 -99 357 -111 356 -9 -1 -49 -11
-89 -22z"/>
<path d="M5215 4940 c-220 -59 -537 -144 -705 -189 -167 -45 -305 -83 -306
-84 -6 -6 52 -207 60 -207 5 0 212 54 460 121 248 66 561 150 696 186 135 36
249 69 254 74 11 10 -35 201 -50 205 -5 1 -189 -46 -409 -106z"/>
<path d="M1911 4575 c-128 -35 -235 -66 -238 -69 -5 -4 25 -118 242 -926 58
-217 176 -656 261 -975 85 -319 166 -603 179 -631 31 -69 93 -130 168 -164 98
-45 134 -47 184 -11 87 63 136 165 135 281 0 66 -29 183 -241 970 -132 492
-282 1051 -333 1242 -71 265 -97 348 -108 347 -8 0 -120 -29 -249 -64z"/>
<path d="M3705 4536 c-187 -51 -482 -130 -655 -176 -173 -46 -318 -86 -322
-90 -4 -3 1 -37 12 -75 30 -112 101 -377 190 -710 45 -170 85 -315 89 -321 4
-8 220 46 670 167 365 98 666 180 668 183 3 2 -52 217 -122 478 -161 600 -170
632 -181 634 -5 1 -162 -40 -349 -90z"/>
<path d="M5460 4513 c-151 -41 -465 -125 -698 -188 -233 -62 -426 -115 -429
-119 -6 -6 34 -175 47 -196 7 -11 22 -9 92 10 45 12 130 36 188 52 98 27 807
216 1040 278 84 22 105 31 103 45 -3 44 -49 195 -58 194 -5 0 -134 -34 -285
-76z"/>
<path d="M5625 4065 c-126 -34 -435 -118 -685 -185 -532 -143 -490 -131 -490
-137 0 -10 51 -198 55 -201 2 -2 91 19 197 48 548 147 1052 281 1128 301 47
12 89 26 93 29 12 10 -43 210 -57 209 -6 -1 -114 -29 -241 -64z"/>
<path d="M5745 3605 c-222 -61 -379 -103 -965 -260 -151 -41 -369 -99 -485
-130 -115 -31 -401 -107 -635 -170 -487 -130 -572 -153 -576 -158 -3 -3 46
-198 52 -205 2 -4 361 91 1559 413 346 93 748 200 1048 280 155 42 289 78 298
81 15 4 14 15 -11 107 -17 65 -32 103 -41 103 -8 1 -117 -26 -244 -61z"/>
<path d="M6089 3206 c-3 -3 -942 -256 -1729 -466 -851 -227 -1128 -302 -1141
-308 -15 -6 -14 -16 11 -105 15 -54 29 -100 32 -102 5 -5 153 34 1653 436
1206 324 1257 337 1260 341 2 2 -8 50 -23 106 -20 75 -31 102 -43 102 -8 0
-18 -2 -20 -4z"/>
</g>
</svg>
